<?xml version="1.0" standalone="no"?>
<!DOCTYPE svg PUBLIC "-//W3C//DTD SVG 20010904//EN"
 "http://www.w3.org/TR/2001/REC-SVG-20010904/DTD/svg10.dtd">
<svg version="1.0" xmlns="http://www.w3.org/2000/svg"
 width="512.000000pt" height="512.000000pt" viewBox="0 0 512.000000 512.000000"
 preserveAspectRatio="xMidYMid meet">

<g transform="translate(0.000000,512.000000) scale(0.100000,-0.100000)"
fill="#000000" stroke="none">
<path d="M801 4925 l-31 -27 0 -2333 0 -2334 24 -28 c21 -24 31 -27 82 -28
l59 0 0 2385 0 2385 -51 3 c-43 2 -56 -1 -83 -23z"/>
<path d="M1110 2560 l0 -2390 679 0 679 0 4 189 c3 167 5 191 22 209 40 45
113 36 141 -17 12 -24 15 -67 15 -206 l0 -175 680 0 680 0 -2 2388 -3 2387
-678 0 -678 0 -2 -142 c-2 -134 -3 -143 -26 -167 -34 -36 -88 -36 -122 0 -23
24 -24 33 -27 170 l-3 144 -680 0 -679 0 0 -2390z m2525 2015 c102 -26 135
-42 168 -86 33 -45 33 -98 -3 -239 l-34 -130 34 -128 c59 -226 59 -225 -58
-345 -114 -116 -161 -147 -224 -147 -79 0 -118 27 -192 132 -61 88 -70 97
-177 163 -61 39 -125 83 -140 98 -30 29 -50 87 -90 252 -20 81 -21 99 -10 134
20 69 64 103 176 137 91 27 104 34 173 96 116 106 170 115 377 63z m-1014
-251 l24 -26 0 -290 0 -290 -28 -24 c-36 -31 -78 -31 -114 0 l-28 24 0 290 0
290 24 26 c34 36 88 36 122 0z m-3 -934 c11 -11 24 -35 27 -52 3 -18 5 -152 3
-296 l-3 -264 -28 -24 c-36 -31 -78 -31 -114 0 l-28 24 -3 264 c-4 285 -1 319
29 349 26 26 88 26 117 -1z m-24 -924 c54 -23 57 -41 54 -350 l-3 -278 -28
-24 c-36 -31 -78 -31 -114 0 l-28 24 -3 269 c-4 304 1 337 51 358 40 18 32 17
71 1z m-848 -535 c23 -10 73 -49 111 -85 59 -55 81 -69 139 -87 167 -51 205
-83 212 -179 4 -65 -54 -292 -87 -338 -11 -16 -76 -63 -144 -106 -119 -74
-127 -82 -188 -168 -73 -104 -109 -128 -191 -128 -66 0 -89 13 -201 120 -137
130 -141 142 -87 346 l40 149 -36 133 c-38 146 -38 172 1 232 28 45 69 63 220
100 144 34 158 35 211 11z m849 -403 c51 -23 55 -45 55 -326 0 -164 -4 -271
-11 -291 -21 -60 -103 -77 -145 -29 -17 18 -19 44 -22 287 -4 293 1 331 46
355 33 19 44 19 77 4z"/>
<path d="M4185 4938 c-3 -7 -4 -1082 -3 -2388 l3 -2375 53 -3 c47 -3 56 0 82
27 l30 29 0 2335 0 2335 -31 26 c-24 20 -41 26 -80 26 -31 0 -51 -5 -54 -12z"/>
</g>
</svg>
