<?xml version="1.0" standalone="no"?>
<!DOCTYPE svg PUBLIC "-//W3C//DTD SVG 20010904//EN"
 "http://www.w3.org/TR/2001/REC-SVG-20010904/DTD/svg10.dtd">
<svg version="1.0" xmlns="http://www.w3.org/2000/svg"
 width="512.000000pt" height="512.000000pt" viewBox="0 0 512.000000 512.000000"
 preserveAspectRatio="xMidYMid meet">

<g transform="translate(0.000000,512.000000) scale(0.100000,-0.100000)"
fill="red" stroke="none">
<path d="M710 5109 c-351 -38 -556 -200 -605 -476 -21 -118 -21 -1657 0 -1758
24 -114 77 -209 164 -295 92 -90 160 -132 289 -176 213 -72 447 -64 611 21 18
9 34 15 35 13 2 -2 26 -42 55 -89 75 -124 171 -240 384 -466 221 -234 314
-354 395 -512 109 -211 166 -399 222 -734 16 -98 41 -212 56 -255 58 -175 146
-292 260 -348 51 -25 71 -29 145 -29 78 0 91 3 160 37 291 144 468 617 405
1083 -18 133 -38 216 -85 349 -74 210 -101 375 -81 494 11 68 14 73 34 68 11
-3 98 -22 191 -41 684 -140 1124 -118 1370 67 77 59 139 142 176 235 20 50 23
78 26 211 2 146 3 156 32 216 54 114 75 201 75 306 -1 150 -51 266 -164 379
l-51 51 22 88 c32 122 32 301 1 386 -39 106 -107 192 -190 242 -31 18 -32 21
-32 84 0 84 -21 166 -67 260 -48 99 -183 235 -296 299 -337 190 -819 280
-1493 281 -446 0 -1023 -51 -1360 -120 l-94 -19 -46 49 c-26 27 -72 62 -103
77 -52 25 -65 27 -206 29 -82 1 -188 -2 -235 -7z m366 -263 l34 -34 0 -1065 0
-1065 -31 -26 c-45 -39 -130 -60 -234 -59 -169 0 -323 60 -418 163 -98 105
-92 40 -92 1005 l0 840 29 63 c70 151 220 206 570 211 l108 1 34 -34z m2216
-10 c596 -67 937 -212 1046 -444 24 -52 27 -69 29 -185 1 -97 6 -134 17 -152
9 -13 47 -40 86 -61 39 -20 82 -50 95 -66 28 -34 55 -115 55 -169 0 -54 -24
-172 -54 -262 -38 -117 -31 -136 92 -229 148 -114 167 -249 64 -458 l-47 -95
0 -160 c0 -159 0 -160 -30 -214 -75 -136 -240 -194 -555 -194 -249 1 -427 24
-818 110 -207 45 -214 46 -248 30 -20 -10 -47 -36 -64 -64 -116 -183 -116
-452 1 -789 55 -157 76 -239 88 -343 29 -233 -7 -462 -101 -643 -61 -119 -160
-208 -231 -208 -62 0 -136 96 -177 230 -11 36 -33 146 -50 245 -68 403 -167
679 -335 930 -86 130 -162 221 -344 410 -237 247 -323 357 -411 532 l-50 98 0
1021 0 1022 113 21 c230 43 565 82 867 101 216 13 798 5 962 -14z"/>
</g>
</svg>
