<?xml version="1.0" standalone="no"?>
<!DOCTYPE svg PUBLIC "-//W3C//DTD SVG 20010904//EN"
 "http://www.w3.org/TR/2001/REC-SVG-20010904/DTD/svg10.dtd">
<svg version="1.0" xmlns="http://www.w3.org/2000/svg"
 width="512.000000pt" height="512.000000pt" viewBox="0 0 512.000000 512.000000"
 preserveAspectRatio="xMidYMid meet">

<g transform="translate(0.000000,512.000000) scale(0.100000,-0.100000)"
fill="#000000" stroke="none">
<path d="M1795 4928 c-21 -19 -110 -260 -485 -1321 -330 -932 -458 -1305 -454
-1323 3 -13 18 -33 31 -44 25 -20 43 -20 745 -20 l720 0 29 -29 c16 -16 29
-38 29 -48 0 -10 -125 -453 -277 -985 -274 -956 -288 -1011 -244 -983 7 3 532
617 1168 1363 636 746 1168 1369 1182 1385 35 39 34 91 -3 123 l-27 24 -734 0
c-517 0 -741 3 -758 11 -32 15 -51 50 -45 86 2 16 223 398 491 850 341 576
487 830 487 850 -1 32 -15 55 -47 71 -16 9 -252 12 -902 12 l-880 0 -26 -22z"/>
</g>
</svg>
