<?xml version="1.0" standalone="no"?>
<!DOCTYPE svg PUBLIC "-//W3C//DTD SVG 20010904//EN"
 "http://www.w3.org/TR/2001/REC-SVG-20010904/DTD/svg10.dtd">
<svg version="1.0" xmlns="http://www.w3.org/2000/svg"
 width="512.000000pt" height="512.000000pt" viewBox="0 0 512.000000 512.000000"
 preserveAspectRatio="xMidYMid meet">

<g transform="translate(0.000000,512.000000) scale(0.100000,-0.100000)"
fill="#000000" stroke="none">
<path d="M1800 5110 c-113 -16 -247 -50 -263 -68 -36 -42 -32 -56 63 -234 50
-94 89 -175 88 -180 -2 -6 -32 -23 -65 -38 -46 -21 -64 -25 -71 -17 -5 7 -40
72 -78 146 -56 108 -75 137 -100 149 -27 12 -35 12 -60 1 -16 -8 -35 -27 -43
-43 -13 -28 -10 -35 58 -172 39 -79 71 -145 71 -148 0 -6 -160 -59 -164 -55
-2 2 -21 62 -42 132 -22 71 -47 137 -57 148 -40 42 -104 29 -129 -27 -10 -20
-5 -46 30 -156 25 -81 37 -135 31 -139 -14 -8 -140 -31 -146 -26 -2 3 -9 49
-15 103 -10 88 -15 102 -40 128 -24 23 -34 27 -61 22 -56 -11 -70 -39 -63
-126 4 -41 9 -91 13 -111 l5 -37 -52 -7 c-28 -4 -53 -5 -54 -4 -2 2 -45 78
-96 169 -51 91 -101 173 -112 183 -11 9 -33 17 -48 17 -57 0 -65 -17 -155
-332 -47 -164 -85 -307 -85 -318 0 -34 35 -60 81 -60 32 0 78 19 212 89 161
83 177 89 250 95 42 4 77 3 77 -1 0 -40 32 -248 39 -262 20 -37 75 -42 115
-10 30 24 33 57 15 202 -6 49 -9 90 -7 93 5 4 157 34 175 34 7 0 33 -66 59
-147 25 -82 51 -154 57 -162 30 -36 106 -30 127 9 16 30 12 59 -30 195 -22 72
-40 135 -40 140 0 6 43 25 95 42 l94 31 35 -61 c18 -34 55 -104 80 -155 26
-51 55 -101 66 -112 26 -26 80 -26 108 0 37 35 28 71 -57 235 l-80 152 69 33
c39 19 72 32 74 29 2 -2 43 -76 90 -164 48 -88 96 -168 107 -177 12 -10 35
-18 53 -18 27 0 48 17 151 122 173 176 265 316 295 447 42 183 -77 346 -296
405 -71 20 -283 28 -374 16z m351 -243 c93 -62 83 -191 -17 -233 -44 -18 -68
-18 -111 3 -45 21 -73 67 -73 118 0 106 115 170 201 112z"/>
<path d="M3332 4549 c-48 -14 -109 -80 -123 -131 -23 -89 12 -182 88 -229 57
-36 154 -34 210 3 62 41 88 90 88 168 0 77 -26 127 -85 166 -43 29 -125 39
-178 23z"/>
<path d="M2460 4322 c-70 -98 -283 -312 -335 -338 -30 -14 -60 -19 -119 -18
-80 0 -80 0 -113 -37 -86 -95 -224 -106 -325 -28 -20 16 -39 29 -41 29 -3 0
-8 -11 -11 -25 -10 -39 -76 -106 -126 -128 -91 -41 -215 -17 -273 52 l-23 28
-33 -34 c-144 -151 -374 -82 -412 122 -6 33 -12 62 -14 63 -2 2 -76 -33 -165
-79 -154 -79 -164 -83 -228 -83 -72 0 -115 16 -164 62 l-27 25 -23 -49 c-21
-46 -23 -64 -26 -326 l-3 -278 1441 0 1442 0 -4 243 -3 242 -34 63 c-19 35
-48 74 -64 88 -45 37 -117 71 -169 79 l-46 7 -4 157 c-3 130 -7 163 -23 198
l-20 42 -55 -77z m-37 -492 c83 -97 76 -222 -18 -315 -93 -94 -218 -101 -315
-18 -57 49 -56 109 2 139 32 17 60 12 97 -17 75 -59 171 37 112 112 -29 38
-34 65 -17 98 18 33 28 39 73 40 25 1 39 -7 66 -39z m-1808 -175 c50 -49 15
-135 -55 -135 -41 0 -80 39 -80 80 0 41 39 80 80 80 19 0 40 -9 55 -25z m949
-14 c26 -27 31 -39 31 -81 0 -43 -5 -54 -33 -82 -28 -28 -39 -33 -82 -33 -43
0 -54 5 -82 33 -28 28 -33 39 -33 81 0 52 25 92 70 112 37 16 96 3 129 -30z"/>
<path d="M4075 4151 c-45 -20 -70 -60 -70 -112 0 -42 5 -53 33 -81 28 -28 39
-33 82 -33 43 0 54 5 82 33 28 28 33 39 33 82 0 42 -5 54 -31 81 -33 33 -92
46 -129 30z"/>
<path d="M3417 3610 c-27 -5 -50 -10 -52 -12 -9 -9 132 -542 145 -550 15 -8
782 -180 785 -175 1 1 43 57 94 125 l92 123 -48 56 c-109 127 -289 271 -428
341 -168 84 -409 122 -588 92z"/>
<path d="M0 2960 l0 -160 335 0 336 0 24 -25 c33 -32 33 -78 0 -110 l-24 -25
-331 0 -330 0 0 -45 c0 -99 119 -2025 130 -2090 24 -157 132 -302 273 -369 40
-19 89 -38 111 -42 l38 -7 -6 94 c-3 52 -20 505 -37 1008 -25 731 -29 924 -20
966 34 150 179 255 335 243 145 -12 273 -132 291 -273 2 -22 18 -458 35 -970
17 -511 33 -963 36 -1002 l6 -73 237 0 238 0 6 107 c4 58 7 149 8 202 1 149
11 211 38 232 34 27 68 24 103 -11 29 -30 29 -30 24 -117 -3 -49 -8 -161 -12
-250 l-6 -163 226 0 c226 0 294 7 369 39 l39 17 -71 58 c-189 155 -304 339
-368 585 -74 292 -13 639 156 885 l31 45 3 215 c2 203 1 216 -19 242 -75 102
-216 95 -270 -13 -19 -37 -22 -66 -28 -245 -12 -378 -16 -419 -42 -445 -32
-32 -69 -29 -105 7 l-30 29 6 158 c22 533 18 495 54 567 34 70 77 112 151 148
67 33 196 32 265 -2 64 -31 124 -92 156 -155 21 -44 24 -66 27 -182 2 -73 6
-133 8 -133 2 0 97 72 210 160 113 88 215 166 225 174 16 11 20 34 29 157 5
79 10 168 10 197 l0 52 -970 0 -971 0 -24 25 c-33 32 -33 78 0 110 l24 25 976
0 975 0 0 160 0 160 -1440 0 -1440 0 0 -160z"/>
<path d="M3520 2749 c0 -125 1 -129 23 -133 22 -5 646 -56 680 -56 15 0 17 10
17 79 0 73 -2 79 -22 84 -13 3 -167 38 -343 77 -176 38 -328 72 -337 74 -16 4
-18 -7 -18 -125z"/>
<path d="M3305 2396 c-44 -34 -217 -167 -385 -296 -168 -129 -348 -269 -402
-312 -292 -235 -419 -616 -328 -979 27 -109 105 -267 172 -353 72 -92 241
-226 353 -281 155 -76 213 -86 500 -92 l250 -5 115 307 c76 205 121 311 134
321 47 33 126 -3 126 -57 0 -13 -45 -143 -100 -289 -55 -146 -100 -269 -100
-273 0 -4 57 -7 127 -7 l126 0 53 41 c87 67 238 231 303 329 68 103 113 205
142 318 12 49 27 83 40 95 31 25 75 22 106 -9 23 -23 25 -30 19 -77 -25 -187
-159 -432 -343 -627 l-68 -73 80 7 c489 40 860 418 892 907 16 259 -75 561
-235 775 -32 43 -170 201 -307 349 -136 149 -248 271 -250 273 -1 1 -190 15
-421 32 -230 16 -441 31 -469 34 -49 5 -52 4 -130 -58z m110 -421 c50 -49 15
-135 -55 -135 -41 0 -80 39 -80 80 0 41 39 80 80 80 19 0 40 -9 55 -25z m-230
-160 c24 -24 31 -57 19 -89 -4 -9 -100 -89 -215 -177 -215 -164 -268 -218
-307 -309 -23 -54 -42 -138 -42 -185 0 -48 -37 -88 -80 -88 -47 0 -80 40 -80
96 1 130 71 304 165 405 50 54 320 271 429 346 48 33 80 33 111 1z"/>
<path d="M754 2229 c-37 -10 -91 -67 -100 -105 -6 -23 48 -1706 62 -1941 l6
-103 159 0 159 0 -5 78 c-3 42 -19 498 -36 1012 -30 906 -31 936 -52 980 -35
71 -111 103 -193 79z"/>
</g>
</svg>
