<?xml version="1.0" standalone="no"?>
<!DOCTYPE svg PUBLIC "-//W3C//DTD SVG 20010904//EN"
 "http://www.w3.org/TR/2001/REC-SVG-20010904/DTD/svg10.dtd">
<svg version="1.0" xmlns="http://www.w3.org/2000/svg"
 width="512.000000pt" height="512.000000pt" viewBox="0 0 512.000000 512.000000"
 preserveAspectRatio="xMidYMid meet">

<g transform="translate(0.000000,512.000000) scale(0.100000,-0.100000)"
fill="#000000" stroke="none">
<path d="M2284 4945 c-628 -92 -1151 -528 -1348 -1125 -172 -520 -88 -1005
303 -1765 234 -454 517 -896 910 -1420 164 -219 359 -465 369 -465 4 0 57 64
118 142 725 933 1275 1865 1459 2473 70 230 80 299 80 525 -1 175 -4 220 -23
310 -138 637 -593 1120 -1213 1286 -194 52 -458 67 -655 39z m426 -950 c239
-73 416 -251 491 -495 33 -107 33 -274 0 -380 -81 -263 -262 -437 -521 -501
-163 -41 -370 -12 -515 71 -148 86 -260 221 -323 392 -24 67 -27 85 -27 223 0
139 2 156 28 230 63 180 195 330 361 410 123 59 203 76 341 70 61 -2 134 -11
165 -20z"/>
</g>
</svg>
